STARTFONT 2.3
FONT -FontForge-Indie Flower-Book-R-Normal--10-100-72-72-P-46-ISO10646-1
SIZE 10 72 72  4
FONTBOUNDINGBOX 13 15 -2 -5
COMMENT "Generated by fontforge, http://fontforge.sourceforge.net"
COMMENT "Copyright (c) 2010, Kimberly Geswein (kimberlygeswein.com)"
STARTPROPERTIES 40
FOUNDRY "FontForge"
FAMILY_NAME "Indie Flower"
WEIGHT_NAME "Book"
SLANT "R"
SETWIDTH_NAME "Normal"
ADD_STYLE_NAME ""
PIXEL_SIZE 10
POINT_SIZE 100
RESOLUTION_X 72
RESOLUTION_Y 72
SPACING "P"
AVERAGE_WIDTH 46
CHARSET_REGISTRY "ISO10646"
CHARSET_ENCODING "1"
FONTNAME_REGISTRY ""
CHARSET_COLLECTIONS "ISO8859-2 ISO8859-9 ISO8859-4 ISO10646-1"
BITS_PER_PIXEL 4
FONT_NAME "IndieFlower"
FACE_NAME "Indie Flower"
COPYRIGHT "Copyright (c) 2010, Kimberly Geswein (kimberlygeswein.com)"
FONT_VERSION "1.001 2010"
FONT_ASCENT 8
FONT_DESCENT 2
UNDERLINE_POSITION -1
UNDERLINE_THICKNESS 1
X_HEIGHT 3
CAP_HEIGHT 5
RAW_ASCENT 799
RAW_DESCENT 200
NORM_SPACE 4
RELATIVE_WEIGHT 40
RELATIVE_SETWIDTH 50
SUPERSCRIPT_X 0
SUPERSCRIPT_Y 4
SUPERSCRIPT_SIZE 6
SUBSCRIPT_X 0
SUBSCRIPT_Y 1
SUBSCRIPT_SIZE 6
AVG_LOWERCASE_WIDTH 45
AVG_UPPERCASE_WIDTH 53
ENDPROPERTIES
CHARS 356
STARTCHAR space
ENCODING 32
SWIDTH 375 0
DWIDTH 4 0
BBX 1 1 0 0
BITMAP
00
ENDCHAR
STARTCHAR exclam
ENCODING 33
SWIDTH 149 0
DWIDTH 2 0
BBX 2 9 0 0
BITMAP
10
70
70
80
80
80
30
00
B3
ENDCHAR
STARTCHAR quotedbl
ENCODING 34
SWIDTH 234 0
DWIDTH 2 0
BBX 3 3 0 5
BITMAP
4600
9800
7810
ENDCHAR
STARTCHAR numbersign
ENCODING 35
SWIDTH 768 0
DWIDTH 8 0
BBX 8 5 0 0
BITMAP
00055000
014BB870
785B9872
177C9721
00043400
ENDCHAR
STARTCHAR dollar
ENCODING 36
SWIDTH 581 0
DWIDTH 6 0
BBX 6 10 0 0
BITMAP
000100
001650
007C80
068650
01B820
007C80
007736
847808
04DB73
007A20
ENDCHAR
STARTCHAR percent
ENCODING 37
SWIDTH 636 0
DWIDTH 6 0
BBX 7 6 0 0
BITMAP
25005200
93725000
87570000
01729900
02953810
06149600
ENDCHAR
STARTCHAR ampersand
ENCODING 38
SWIDTH 457 0
DWIDTH 5 0
BBX 5 7 0 0
BITMAP
066000
089000
095100
0C1B20
55A500
90C200
992500
ENDCHAR
STARTCHAR quotesingle
ENCODING 39
SWIDTH 102 0
DWIDTH 1 0
BBX 1 3 0 5
BITMAP
10
80
80
ENDCHAR
STARTCHAR parenleft
ENCODING 40
SWIDTH 421 0
DWIDTH 4 0
BBX 4 7 0 -1
BITMAP
0069
0730
4500
8000
8000
6720
0340
ENDCHAR
STARTCHAR parenright
ENCODING 41
SWIDTH 290 0
DWIDTH 3 0
BBX 3 7 0 -1
BITMAP
4800
0550
0090
0080
0730
5900
6000
ENDCHAR
STARTCHAR asterisk
ENCODING 42
SWIDTH 412 0
DWIDTH 4 0
BBX 4 4 0 2
BITMAP
4767
5DF4
47D4
1042
ENDCHAR
STARTCHAR plus
ENCODING 43
SWIDTH 459 0
DWIDTH 5 0
BBX 5 5 0 0
BITMAP
010000
053000
38B720
43A200
008000
ENDCHAR
STARTCHAR comma
ENCODING 44
SWIDTH 130 0
DWIDTH 1 0
BBX 1 4 0 -2
BITMAP
30
90
90
60
ENDCHAR
STARTCHAR hyphen
ENCODING 45
SWIDTH 375 0
DWIDTH 4 0
BBX 4 2 0 2
BITMAP
0230
6762
ENDCHAR
STARTCHAR period
ENCODING 46
SWIDTH 204 0
DWIDTH 2 0
BBX 2 2 0 0
BITMAP
57
69
ENDCHAR
STARTCHAR slash
ENCODING 47
SWIDTH 309 0
DWIDTH 3 0
BBX 3 8 0 0
BITMAP
0030
0070
0170
0540
0900
1800
7200
8000
ENDCHAR
STARTCHAR zero
ENCODING 48
SWIDTH 430 0
DWIDTH 4 0
BBX 4 4 0 0
BITMAP
18B4
7009
7009
2896
ENDCHAR
STARTCHAR one
ENCODING 49
SWIDTH 318 0
DWIDTH 3 0
BBX 3 6 0 0
BITMAP
0060
00A0
0AB0
8490
0270
0340
ENDCHAR
STARTCHAR two
ENCODING 50
SWIDTH 497 0
DWIDTH 5 0
BBX 5 6 0 0
BITMAP
003400
007820
000450
000630
652800
7CBA50
ENDCHAR
STARTCHAR three
ENCODING 51
SWIDTH 430 0
DWIDTH 4 0
BBX 4 6 0 0
BITMAP
2430
4464
1691
1595
6109
2999
ENDCHAR
STARTCHAR four
ENCODING 52
SWIDTH 412 0
DWIDTH 4 0
BBX 4 6 0 0
BITMAP
7200
8003
701B
86BA
1529
0009
ENDCHAR
STARTCHAR five
ENCODING 53
SWIDTH 571 0
DWIDTH 6 0
BBX 6 7 0 0
BITMAP
007882
027000
094000
037920
000080
600090
5AAA40
ENDCHAR
STARTCHAR six
ENCODING 54
SWIDTH 440 0
DWIDTH 4 0
BBX 5 6 0 0
BITMAP
018910
081000
765100
932A00
800810
4BA700
ENDCHAR
STARTCHAR seven
ENCODING 55
SWIDTH 412 0
DWIDTH 4 0
BBX 4 6 0 0
BITMAP
3440
23A0
0080
18D8
0090
0260
ENDCHAR
STARTCHAR eight
ENCODING 56
SWIDTH 375 0
DWIDTH 4 0
BBX 4 6 0 0
BITMAP
2960
9090
5A40
4770
7126
1884
ENDCHAR
STARTCHAR nine
ENCODING 57
SWIDTH 300 0
DWIDTH 3 0
BBX 3 6 0 0
BITMAP
6760
90B0
88B0
0190
0080
0080
ENDCHAR
STARTCHAR colon
ENCODING 58
SWIDTH 84 0
DWIDTH 1 0
BBX 1 4 0 0
BITMAP
20
20
10
10
ENDCHAR
STARTCHAR semicolon
ENCODING 59
SWIDTH 128 0
DWIDTH 1 0
BBX 2 6 -1 -2
BITMAP
07
00
02
08
0A
16
ENDCHAR
STARTCHAR less
ENCODING 60
SWIDTH 487 0
DWIDTH 5 0
BBX 5 4 0 0
BITMAP
001830
058100
870000
489910
ENDCHAR
STARTCHAR equal
ENCODING 61
SWIDTH 524 0
DWIDTH 5 0
BBX 5 3 0 1
BITMAP
599880
000000
589940
ENDCHAR
STARTCHAR greater
ENCODING 62
SWIDTH 403 0
DWIDTH 4 0
BBX 4 5 0 0
BITMAP
5100
1896
002B
0581
6500
ENDCHAR
STARTCHAR question
ENCODING 63
SWIDTH 272 0
DWIDTH 3 0
BBX 3 9 0 0
BITMAP
6700
1360
0270
0830
1900
2A30
0000
0000
0140
ENDCHAR
STARTCHAR at
ENCODING 64
SWIDTH 815 0
DWIDTH 8 0
BBX 8 9 0 0
BITMAP
01778600
18100391
61014119
60373928
60700A08
70703D47
27588360
06500000
00497893
ENDCHAR
STARTCHAR A
ENCODING 65
SWIDTH 562 0
DWIDTH 6 0
BBX 6 8 0 0
BITMAP
037400
170540
510080
600071
854383
822375
720045
440054
ENDCHAR
STARTCHAR B
ENCODING 66
SWIDTH 741 0
DWIDTH 7 0
BBX 8 7 0 0
BITMAP
58C96000
01806300
0085A000
00839800
00630190
00640082
005A8990
ENDCHAR
STARTCHAR C
ENCODING 67
SWIDTH 515 0
DWIDTH 5 0
BBX 5 7 0 0
BITMAP
003500
067700
340000
600000
700000
810000
2B9960
ENDCHAR
STARTCHAR D
ENCODING 68
SWIDTH 741 0
DWIDTH 7 0
BBX 8 8 0 -1
BITMAP
03410000
656C9300
00080750
00080090
00090071
000901A0
00598B30
00011000
ENDCHAR
STARTCHAR E
ENCODING 69
SWIDTH 524 0
DWIDTH 5 0
BBX 5 7 0 0
BITMAP
122200
966640
900000
A77820
800000
800000
79AB60
ENDCHAR
STARTCHAR F
ENCODING 70
SWIDTH 514 0
DWIDTH 5 0
BBX 7 6 -1 0
BITMAP
17DA9970
00800010
00933100
03A97200
00450000
00260000
ENDCHAR
STARTCHAR G
ENCODING 71
SWIDTH 571 0
DWIDTH 6 0
BBX 6 7 0 -1
BITMAP
000130
017761
180000
714792
700064
2986A4
000025
ENDCHAR
STARTCHAR H
ENCODING 72
SWIDTH 524 0
DWIDTH 5 0
BBX 5 7 0 0
BITMAP
300050
700070
800080
726990
9A3080
450080
240080
ENDCHAR
STARTCHAR I
ENCODING 73
SWIDTH 167 0
DWIDTH 2 0
BBX 2 6 0 0
BITMAP
30
80
71
54
36
17
ENDCHAR
STARTCHAR J
ENCODING 74
SWIDTH 439 0
DWIDTH 4 0
BBX 5 7 0 0
BITMAP
000700
000800
000800
300620
700530
170620
018900
ENDCHAR
STARTCHAR K
ENCODING 75
SWIDTH 468 0
DWIDTH 5 0
BBX 5 6 0 0
BITMAP
506200
756000
870000
880000
849100
621930
ENDCHAR
STARTCHAR L
ENCODING 76
SWIDTH 346 0
DWIDTH 3 0
BBX 4 6 0 0
BITMAP
2000
8000
9000
8000
8000
6A92
ENDCHAR
STARTCHAR M
ENCODING 77
SWIDTH 534 0
DWIDTH 5 0
BBX 5 6 0 0
BITMAP
A201A0
5B4A90
646390
620090
7200A0
410090
ENDCHAR
STARTCHAR N
ENCODING 78
SWIDTH 609 0
DWIDTH 6 0
BBX 6 6 0 0
BITMAP
200000
810081
860047
8A0009
838009
904AA3
ENDCHAR
STARTCHAR O
ENCODING 79
SWIDTH 609 0
DWIDTH 6 0
BBX 6 5 0 0
BITMAP
288600
700391
700018
730009
088882
ENDCHAR
STARTCHAR P
ENCODING 80
SWIDTH 627 0
DWIDTH 6 0
BBX 7 6 0 0
BITMAP
78897100
20402900
00700910
00899500
00650000
00240000
ENDCHAR
STARTCHAR Q
ENCODING 81
SWIDTH 642 0
DWIDTH 6 0
BBX 7 7 0 -1
BITMAP
01510000
274B6000
80055600
80020710
64091810
07ACE500
00001830
ENDCHAR
STARTCHAR R
ENCODING 82
SWIDTH 579 0
DWIDTH 6 0
BBX 7 8 -1 -1
BITMAP
01331000
1A558900
01500730
00A9A700
00960000
00674000
00235710
00000230
ENDCHAR
STARTCHAR S
ENCODING 83
SWIDTH 627 0
DWIDTH 6 0
BBX 6 7 0 -1
BITMAP
047792
081001
018500
200393
810009
178787
000100
ENDCHAR
STARTCHAR T
ENCODING 84
SWIDTH 581 0
DWIDTH 6 0
BBX 7 7 0 0
BITMAP
22110000
468C8950
00080000
00080000
00090000
00081000
00056000
ENDCHAR
STARTCHAR U
ENCODING 85
SWIDTH 571 0
DWIDTH 6 0
BBX 6 6 0 0
BITMAP
310010
700090
700090
700090
5401D4
09A825
ENDCHAR
STARTCHAR V
ENCODING 86
SWIDTH 421 0
DWIDTH 4 0
BBX 4 6 0 0
BITMAP
1001
9108
560A
0B19
0695
00B0
ENDCHAR
STARTCHAR W
ENCODING 87
SWIDTH 703 0
DWIDTH 7 0
BBX 7 5 0 0
BITMAP
60000520
90000380
90360090
816B0090
2A72AA30
ENDCHAR
STARTCHAR X
ENCODING 88
SWIDTH 534 0
DWIDTH 5 0
BBX 6 7 0 -1
BITMAP
010000
180181
056700
04D000
194600
710620
300000
ENDCHAR
STARTCHAR Y
ENCODING 89
SWIDTH 403 0
DWIDTH 4 0
BBX 4 8 0 -1
BITMAP
2000
8107
2A49
01A4
0080
0080
0080
0010
ENDCHAR
STARTCHAR Z
ENCODING 90
SWIDTH 571 0
DWIDTH 6 0
BBX 6 7 0 0
BITMAP
131000
656700
000700
014B50
06A830
018000
03BAA4
ENDCHAR
STARTCHAR bracketleft
ENCODING 91
SWIDTH 477 0
DWIDTH 5 0
BBX 6 8 0 -1
BITMAP
168830
A30000
720000
350000
070000
070000
070000
098883
ENDCHAR
STARTCHAR backslash
ENCODING 92
SWIDTH 430 0
DWIDTH 4 0
BBX 5 6 0 0
BITMAP
200000
730000
0B2000
02B100
004900
000910
ENDCHAR
STARTCHAR bracketright
ENCODING 93
SWIDTH 430 0
DWIDTH 4 0
BBX 5 10 0 -1
BITMAP
331000
269500
000900
000800
000700
000700
000700
000800
000810
3BBD10
ENDCHAR
STARTCHAR asciicircum
ENCODING 94
SWIDTH 375 0
DWIDTH 4 0
BBX 4 3 0 5
BITMAP
0110
09A0
3462
ENDCHAR
STARTCHAR underscore
ENCODING 95
SWIDTH 656 0
DWIDTH 7 0
BBX 7 1 0 0
BITMAP
4889AB30
ENDCHAR
STARTCHAR grave
ENCODING 96
SWIDTH 172 0
DWIDTH 2 0
BBX 2 2 0 4
BITMAP
50
24
ENDCHAR
STARTCHAR a
ENCODING 97
SWIDTH 505 0
DWIDTH 5 0
BBX 5 5 0 0
BITMAP
059500
000820
597B80
800080
49AA50
ENDCHAR
STARTCHAR b
ENCODING 98
SWIDTH 497 0
DWIDTH 5 0
BBX 5 7 0 0
BITMAP
200000
900000
900000
854100
674940
450090
0A9950
ENDCHAR
STARTCHAR c
ENCODING 99
SWIDTH 449 0
DWIDTH 5 0
BBX 5 4 0 0
BITMAP
287500
800200
900000
398710
ENDCHAR
STARTCHAR d
ENCODING 100
SWIDTH 524 0
DWIDTH 5 0
BBX 5 7 0 0
BITMAP
000800
000550
3CA780
9208A0
9004C0
911BC0
3BB450
ENDCHAR
STARTCHAR e
ENCODING 101
SWIDTH 515 0
DWIDTH 5 0
BBX 5 6 0 0
BITMAP
001000
286600
801800
878100
720000
089940
ENDCHAR
STARTCHAR f
ENCODING 102
SWIDTH 376 0
DWIDTH 4 0
BBX 5 7 0 0
BITMAP
059920
070130
170000
2A2100
6C7300
055000
00A000
ENDCHAR
STARTCHAR g
ENCODING 103
SWIDTH 366 0
DWIDTH 4 0
BBX 6 10 -2 -5
BITMAP
000010
001891
007045
009067
004A98
000019
000008
320008
193027
018AA1
ENDCHAR
STARTCHAR h
ENCODING 104
SWIDTH 427 0
DWIDTH 4 0
BBX 5 7 -1 0
BITMAP
170000
090000
096500
085660
061080
053090
044080
ENDCHAR
STARTCHAR i
ENCODING 105
SWIDTH 174 0
DWIDTH 2 0
BBX 2 6 0 0
BITMAP
50
20
62
54
47
17
ENDCHAR
STARTCHAR j
ENCODING 106
SWIDTH 200 0
DWIDTH 2 0
BBX 5 11 -2 -5
BITMAP
006000
000000
002400
001900
000A00
000A00
000820
150630
0A0530
029920
001500
ENDCHAR
STARTCHAR k
ENCODING 107
SWIDTH 403 0
DWIDTH 4 0
BBX 4 6 0 0
BITMAP
6000
8031
8260
7900
6A00
7498
ENDCHAR
STARTCHAR l
ENCODING 108
SWIDTH 120 0
DWIDTH 1 0
BBX 1 6 0 0
BITMAP
80
90
A0
A0
A0
70
ENDCHAR
STARTCHAR m
ENCODING 109
SWIDTH 750 0
DWIDTH 8 0
BBX 8 5 0 0
BITMAP
00000300
8B94A880
A11E1081
90090063
70021062
ENDCHAR
STARTCHAR n
ENCODING 110
SWIDTH 459 0
DWIDTH 5 0
BBX 5 4 0 0
BITMAP
589600
A10910
910550
440350
ENDCHAR
STARTCHAR o
ENCODING 111
SWIDTH 487 0
DWIDTH 5 0
BBX 5 4 0 0
BITMAP
189B10
700270
800470
399910
ENDCHAR
STARTCHAR p
ENCODING 112
SWIDTH 520 0
DWIDTH 5 0
BBX 5 8 0 -4
BITMAP
037500
672480
B31090
B59950
850000
470000
190000
040000
ENDCHAR
STARTCHAR q
ENCODING 113
SWIDTH 412 0
DWIDTH 4 0
BBX 4 9 0 -4
BITMAP
1886
7109
7019
8128
29B7
0018
0009
0009
0001
ENDCHAR
STARTCHAR r
ENCODING 114
SWIDTH 346 0
DWIDTH 3 0
BBX 4 5 0 0
BITMAP
1671
B232
8000
7200
2500
ENDCHAR
STARTCHAR s
ENCODING 115
SWIDTH 514 0
DWIDTH 5 0
BBX 5 5 0 0
BITMAP
177100
811600
277610
2001A0
498970
ENDCHAR
STARTCHAR t
ENCODING 116
SWIDTH 328 0
DWIDTH 3 0
BBX 4 6 0 0
BITMAP
0900
0A00
7D81
0A00
0A00
0700
ENDCHAR
STARTCHAR u
ENCODING 117
SWIDTH 501 0
DWIDTH 5 0
BBX 5 6 0 -1
BITMAP
200000
800510
800740
720B50
1A9390
000020
ENDCHAR
STARTCHAR v
ENCODING 118
SWIDTH 389 0
DWIDTH 4 0
BBX 4 4 0 0
BITMAP
6003
7345
1990
0680
ENDCHAR
STARTCHAR w
ENCODING 119
SWIDTH 656 0
DWIDTH 7 0
BBX 7 5 0 0
BITMAP
10000000
80010400
80090620
802C0640
29B5AA10
ENDCHAR
STARTCHAR x
ENCODING 120
SWIDTH 448 0
DWIDTH 4 0
BBX 5 5 0 -1
BITMAP
700720
3A9300
08A100
423A00
000310
ENDCHAR
STARTCHAR y
ENCODING 121
SWIDTH 487 0
DWIDTH 5 0
BBX 5 10 0 -5
BITMAP
100110
700250
800170
540590
068680
000070
000070
100080
560440
059900
ENDCHAR
STARTCHAR z
ENCODING 122
SWIDTH 459 0
DWIDTH 5 0
BBX 5 6 0 0
BITMAP
021000
768300
004400
49B600
0A1000
1DA920
ENDCHAR
STARTCHAR braceleft
ENCODING 123
SWIDTH 393 0
DWIDTH 4 0
BBX 4 10 0 -1
BITMAP
0776
8300
7000
6600
08D0
4565
0291
2800
5400
1A86
ENDCHAR
STARTCHAR bar
ENCODING 124
SWIDTH 149 0
DWIDTH 2 0
BBX 2 7 0 0
BITMAP
20
70
70
62
53
53
43
ENDCHAR
STARTCHAR braceright
ENCODING 125
SWIDTH 440 0
DWIDTH 4 0
BBX 5 13 0 -3
BITMAP
465000
725700
003800
038000
090000
0AA400
082000
008100
001700
000700
100710
955900
033000
ENDCHAR
STARTCHAR asciitilde
ENCODING 126
SWIDTH 402 0
DWIDTH 4 0
BBX 4 2 0 4
BITMAP
2403
6382
ENDCHAR
STARTCHAR nonbreakingspace
ENCODING 160
SWIDTH 375 0
DWIDTH 4 0
BBX 1 1 0 0
BITMAP
00
ENDCHAR
STARTCHAR exclamdown
ENCODING 161
SWIDTH 149 0
DWIDTH 2 0
BBX 2 7 0 0
BITMAP
82
00
60
80
70
70
50
ENDCHAR
STARTCHAR cent
ENCODING 162
SWIDTH 449 0
DWIDTH 5 0
BBX 5 7 0 -1
BITMAP
001000
039100
559600
809000
909000
3BC710
004000
ENDCHAR
STARTCHAR sterling
ENCODING 163
SWIDTH 758 0
DWIDTH 8 0
BBX 8 8 0 0
BITMAP
00000310
00008692
00034012
003B8700
056B2100
00060000
34762000
BE978100
ENDCHAR
STARTCHAR currency
ENCODING 164
SWIDTH 618 0
DWIDTH 6 0
BBX 6 6 0 0
BITMAP
200000
499AB5
090034
070034
0A66A0
141161
ENDCHAR
STARTCHAR yen
ENCODING 165
SWIDTH 389 0
DWIDTH 4 0
BBX 4 8 0 0
BITMAP
3000
5409
0764
06A0
4691
2792
3981
0730
ENDCHAR
STARTCHAR brokenbar
ENCODING 166
SWIDTH 117 0
DWIDTH 1 0
BBX 1 6 0 0
BITMAP
50
80
60
80
90
70
ENDCHAR
STARTCHAR section
ENCODING 167
SWIDTH 514 0
DWIDTH 5 0
BBX 5 7 0 0
BITMAP
178400
540540
2C9730
8200A0
3989A0
2001A0
298970
ENDCHAR
STARTCHAR dieresis
ENCODING 168
SWIDTH 397 0
DWIDTH 4 0
BBX 4 2 0 4
BITMAP
0220
2672
ENDCHAR
STARTCHAR copyright
ENCODING 169
SWIDTH 667 0
DWIDTH 7 0
BBX 7 6 0 0
BITMAP
02773000
17389700
72715720
74400170
56977360
08999600
ENDCHAR
STARTCHAR ordfeminine
ENCODING 170
SWIDTH 266 0
DWIDTH 3 0
BBX 3 3 0 2
BITMAP
1500
4640
5530
ENDCHAR
STARTCHAR guillemotleft
ENCODING 171
SWIDTH 755 0
DWIDTH 8 0
BBX 7 5 0 0
BITMAP
00000260
00199700
05893000
874B9820
48991130
ENDCHAR
STARTCHAR logicalnot
ENCODING 172
SWIDTH 369 0
DWIDTH 4 0
BBX 4 2 0 2
BITMAP
5886
0013
ENDCHAR
STARTCHAR hyphen_
ENCODING 173
SWIDTH 375 0
DWIDTH 4 0
BBX 4 2 0 2
BITMAP
0230
6762
ENDCHAR
STARTCHAR registered
ENCODING 174
SWIDTH 708 0
DWIDTH 7 0
BBX 7 6 0 0
BITMAP
03896000
29768900
7360B540
70992070
48655650
05988400
ENDCHAR
STARTCHAR macron
ENCODING 175
SWIDTH 287 0
DWIDTH 3 0
BBX 3 2 0 4
BITMAP
2640
3330
ENDCHAR
STARTCHAR degree
ENCODING 176
SWIDTH 254 0
DWIDTH 3 0
BBX 3 3 0 3
BITMAP
3600
3320
6700
ENDCHAR
STARTCHAR plusminus
ENCODING 177
SWIDTH 459 0
DWIDTH 5 0
BBX 5 5 0 0
BITMAP
032000
038100
68D830
009100
387720
ENDCHAR
STARTCHAR twosuperior
ENCODING 178
SWIDTH 296 0
DWIDTH 3 0
BBX 3 4 0 2
BITMAP
0200
0340
0140
9930
ENDCHAR
STARTCHAR threesuperior
ENCODING 179
SWIDTH 204 0
DWIDTH 2 0
BBX 2 4 0 3
BITMAP
31
35
46
67
ENDCHAR
STARTCHAR acute
ENCODING 180
SWIDTH 180 0
DWIDTH 2 0
BBX 2 2 0 4
BITMAP
03
82
ENDCHAR
STARTCHAR mu
ENCODING 181
SWIDTH 501 0
DWIDTH 5 0
BBX 5 6 0 -1
BITMAP
500100
800730
B00740
C62C70
879290
500000
ENDCHAR
STARTCHAR paragraph
ENCODING 182
SWIDTH 413 0
DWIDTH 4 0
BBX 4 7 0 -1
BITMAP
0110
6FF8
BFC8
3599
0089
0088
0011
ENDCHAR
STARTCHAR periodcentered
ENCODING 183
SWIDTH 212 0
DWIDTH 2 0
BBX 2 2 0 1
BITMAP
58
11
ENDCHAR
STARTCHAR cedilla
ENCODING 184
SWIDTH 445 0
DWIDTH 4 0
BBX 4 4 1 -3
BITMAP
1000
4300
0580
3881
ENDCHAR
STARTCHAR onesuperior
ENCODING 185
SWIDTH 197 0
DWIDTH 2 0
BBX 2 4 0 2
BITMAP
05
39
47
05
ENDCHAR
STARTCHAR ordmasculine
ENCODING 186
SWIDTH 254 0
DWIDTH 3 0
BBX 3 3 0 3
BITMAP
3600
3320
6700
ENDCHAR
STARTCHAR guillemotright
ENCODING 187
SWIDTH 659 0
DWIDTH 7 0
BBX 7 5 0 0
BITMAP
51471000
18998A10
002B2A00
05878000
65440000
ENDCHAR
STARTCHAR onequarter
ENCODING 188
SWIDTH 626 0
DWIDTH 6 0
BBX 6 8 0 0
BITMAP
000300
041400
1B5100
477000
057400
016605
052788
060007
ENDCHAR
STARTCHAR onehalf
ENCODING 189
SWIDTH 566 0
DWIDTH 6 0
BBX 6 8 0 0
BITMAP
000300
031600
084300
5B7000
377370
066041
053060
066B92
ENDCHAR
STARTCHAR threequarters
ENCODING 190
SWIDTH 566 0
DWIDTH 6 0
BBX 6 8 0 -1
BITMAP
430300
250500
273300
577500
007415
007694
043015
060000
ENDCHAR
STARTCHAR questiondown
ENCODING 191
SWIDTH 272 0
DWIDTH 3 0
BBX 3 8 0 -1
BITMAP
5000
0000
3400
1B10
3900
9100
8320
0640
ENDCHAR
STARTCHAR Agrave
ENCODING 192
SWIDTH 562 0
DWIDTH 6 0
BBX 6 10 0 0
BITMAP
005000
003300
037400
170540
510080
600071
854383
822375
720045
440054
ENDCHAR
STARTCHAR Aacute
ENCODING 193
SWIDTH 562 0
DWIDTH 6 0
BBX 6 10 0 0
BITMAP
003000
054000
037400
170540
510080
600071
854383
822375
720045
440054
ENDCHAR
STARTCHAR Acircumflex
ENCODING 194
SWIDTH 562 0
DWIDTH 6 0
BBX 6 10 0 0
BITMAP
002000
01D400
099B00
170540
510080
600071
854383
822375
720045
440054
ENDCHAR
STARTCHAR Atilde
ENCODING 195
SWIDTH 562 0
DWIDTH 6 0
BBX 6 10 0 0
BITMAP
051210
256700
037400
170540
510080
600071
854383
822375
720045
440054
ENDCHAR
STARTCHAR Adieresis
ENCODING 196
SWIDTH 562 0
DWIDTH 6 0
BBX 6 10 0 0
BITMAP
010200
063800
037400
170540
510080
600071
854383
822375
720045
440054
ENDCHAR
STARTCHAR Aring
ENCODING 197
SWIDTH 562 0
DWIDTH 6 0
BBX 6 10 0 0
BITMAP
001000
044500
04C600
170640
510080
600071
854383
822375
720045
440054
ENDCHAR
STARTCHAR AE
ENCODING 198
SWIDTH 960 0
DWIDTH 10 0
BBX 10 8 0 0
BITMAP
0374000000
1705433220
51009A6551
6000780000
85438B7860
8223760000
7200450000
44005AABA2
ENDCHAR
STARTCHAR Ccedilla
ENCODING 199
SWIDTH 515 0
DWIDTH 5 0
BBX 5 10 0 -3
BITMAP
003500
067700
340000
600000
700000
810000
2B9960
071000
016700
057700
ENDCHAR
STARTCHAR Egrave
ENCODING 200
SWIDTH 524 0
DWIDTH 5 0
BBX 5 8 0 0
BITMAP
004000
127300
966640
900000
A77820
800000
800000
79AB60
ENDCHAR
STARTCHAR Eacute
ENCODING 201
SWIDTH 524 0
DWIDTH 5 0
BBX 5 8 0 0
BITMAP
003000
159200
976640
900000
A77820
800000
800000
79AB60
ENDCHAR
STARTCHAR Ecircumflex
ENCODING 202
SWIDTH 524 0
DWIDTH 5 0
BBX 5 10 0 0
BITMAP
002000
00C700
052700
122200
966640
900000
A77820
800000
800000
79AB60
ENDCHAR
STARTCHAR Edieresis
ENCODING 203
SWIDTH 524 0
DWIDTH 5 0
BBX 5 8 0 0
BITMAP
020200
195A00
966640
900000
A77820
800000
800000
79AB60
ENDCHAR
STARTCHAR Igrave
ENCODING 204
SWIDTH 167 0
DWIDTH 2 0
BBX 3 8 -1 0
BITMAP
1400
0510
0300
0800
0710
0540
0360
0170
ENDCHAR
STARTCHAR Iacute
ENCODING 205
SWIDTH 167 0
DWIDTH 2 0
BBX 3 8 -1 0
BITMAP
0210
1800
0300
0800
0710
0540
0360
0170
ENDCHAR
STARTCHAR Icircumflex
ENCODING 206
SWIDTH 167 0
DWIDTH 2 0
BBX 4 10 -1 0
BITMAP
0110
09A0
3462
0000
0300
0800
0710
0540
0360
0170
ENDCHAR
STARTCHAR Idieresis
ENCODING 207
SWIDTH 167 0
DWIDTH 2 0
BBX 3 8 -1 0
BITMAP
2110
8440
0300
0800
0710
0540
0360
0170
ENDCHAR
STARTCHAR Eth
ENCODING 208
SWIDTH 741 0
DWIDTH 7 0
BBX 8 8 0 -1
BITMAP
03410000
656B9300
00080750
005C9390
00180071
000901A0
00598B30
00011000
ENDCHAR
STARTCHAR Ntilde
ENCODING 209
SWIDTH 609 0
DWIDTH 6 0
BBX 6 8 0 0
BITMAP
025030
062830
200000
810081
860047
8A0009
838009
904AA3
ENDCHAR
STARTCHAR Ograve
ENCODING 210
SWIDTH 609 0
DWIDTH 6 0
BBX 6 8 0 0
BITMAP
003200
000600
000000
288600
700391
700018
730009
088882
ENDCHAR
STARTCHAR Oacute
ENCODING 211
SWIDTH 609 0
DWIDTH 6 0
BBX 6 8 0 0
BITMAP
000300
008200
000000
288600
700391
700018
730009
088882
ENDCHAR
STARTCHAR Ocircumflex
ENCODING 212
SWIDTH 609 0
DWIDTH 6 0
BBX 6 8 0 0
BITMAP
002000
05D200
172500
288600
700391
700018
730009
088882
ENDCHAR
STARTCHAR Otilde
ENCODING 213
SWIDTH 609 0
DWIDTH 6 0
BBX 6 7 0 0
BITMAP
052120
156700
288600
700391
700018
730009
088882
ENDCHAR
STARTCHAR Odieresis
ENCODING 214
SWIDTH 609 0
DWIDTH 6 0
BBX 6 8 0 0
BITMAP
002100
027620
000000
288600
700391
700018
730009
088882
ENDCHAR
STARTCHAR multiply
ENCODING 215
SWIDTH 448 0
DWIDTH 4 0
BBX 4 4 0 0
BITMAP
1001
2992
0990
1220
ENDCHAR
STARTCHAR Oslash
ENCODING 216
SWIDTH 609 0
DWIDTH 6 0
BBX 6 8 0 -1
BITMAP
000200
000700
289A00
703891
708118
749009
0BB882
080000
ENDCHAR
STARTCHAR Ugrave
ENCODING 217
SWIDTH 571 0
DWIDTH 6 0
BBX 6 8 0 0
BITMAP
004100
001500
310010
700090
700090
700090
5401D4
09A825
ENDCHAR
STARTCHAR Uacute
ENCODING 218
SWIDTH 571 0
DWIDTH 6 0
BBX 6 8 0 0
BITMAP
001200
009100
310010
700090
700090
700090
5401D4
09A825
ENDCHAR
STARTCHAR Ucircumflex
ENCODING 219
SWIDTH 571 0
DWIDTH 6 0
BBX 6 10 0 0
BITMAP
001100
009A00
034620
000000
310010
700090
700090
700090
5401D4
09A825
ENDCHAR
STARTCHAR Udieresis
ENCODING 220
SWIDTH 571 0
DWIDTH 6 0
BBX 6 8 0 0
BITMAP
011200
035810
310010
700090
700090
700090
5401D4
09A825
ENDCHAR
STARTCHAR Yacute
ENCODING 221
SWIDTH 403 0
DWIDTH 4 0
BBX 4 10 0 -1
BITMAP
0022
0180
2000
8107
2A49
01A4
0080
0080
0080
0010
ENDCHAR
STARTCHAR Thorn
ENCODING 222
SWIDTH 497 0
DWIDTH 5 0
BBX 5 8 0 -2
BITMAP
720000
710000
764100
674940
550090
5B9950
440000
120000
ENDCHAR
STARTCHAR germandbls
ENCODING 223
SWIDTH 590 0
DWIDTH 6 0
BBX 6 9 0 -2
BITMAP
7B8200
A00900
829500
627A40
430064
240019
256872
470000
120000
ENDCHAR
STARTCHAR agrave
ENCODING 224
SWIDTH 505 0
DWIDTH 5 0
BBX 5 7 0 0
BITMAP
023000
006000
059500
000820
597B80
800080
49AA50
ENDCHAR
STARTCHAR aacute
ENCODING 225
SWIDTH 505 0
DWIDTH 5 0
BBX 5 7 0 0
BITMAP
003000
036000
059500
000820
597B80
800080
49AA50
ENDCHAR
STARTCHAR acircumflex
ENCODING 226
SWIDTH 505 0
DWIDTH 5 0
BBX 5 8 0 0
BITMAP
002000
01D600
062700
059500
000820
597B80
800080
49AA50
ENDCHAR
STARTCHAR atilde
ENCODING 227
SWIDTH 505 0
DWIDTH 5 0
BBX 5 8 0 0
BITMAP
051210
336600
000000
059500
000820
597B80
800080
49AA50
ENDCHAR
STARTCHAR adieresis
ENCODING 228
SWIDTH 505 0
DWIDTH 5 0
BBX 5 7 0 0
BITMAP
020200
073800
059500
000820
597B80
800080
49AA50
ENDCHAR
STARTCHAR aring
ENCODING 229
SWIDTH 505 0
DWIDTH 5 0
BBX 5 7 0 0
BITMAP
016100
044500
05A500
000820
597B80
800080
49AA50
ENDCHAR
STARTCHAR ae
ENCODING 230
SWIDTH 881 0
DWIDTH 9 0
BBX 9 6 0 -1
BITMAP
0595288300
0008901700
597BA79200
8000910000
49AA897630
0000003200
ENDCHAR
STARTCHAR ccedilla
ENCODING 231
SWIDTH 449 0
DWIDTH 5 0
BBX 5 8 0 -3
BITMAP
036100
552600
800000
900000
2A9710
072000
015700
057700
ENDCHAR
STARTCHAR egrave
ENCODING 232
SWIDTH 515 0
DWIDTH 5 0
BBX 5 7 0 0
BITMAP
032000
017000
286600
801800
878100
720000
089940
ENDCHAR
STARTCHAR eacute
ENCODING 233
SWIDTH 515 0
DWIDTH 5 0
BBX 5 8 0 0
BITMAP
003000
055000
001000
286600
801800
878100
720000
089940
ENDCHAR
STARTCHAR ecircumflex
ENCODING 234
SWIDTH 515 0
DWIDTH 5 0
BBX 5 8 0 0
BITMAP
002000
01C600
063700
286600
801800
878100
720000
089940
ENDCHAR
STARTCHAR edieresis
ENCODING 235
SWIDTH 515 0
DWIDTH 5 0
BBX 5 7 0 0
BITMAP
020100
085600
286600
801800
878100
720000
089940
ENDCHAR
STARTCHAR igrave
ENCODING 236
SWIDTH 174 0
DWIDTH 2 0
BBX 2 6 0 0
BITMAP
73
22
62
54
47
17
ENDCHAR
STARTCHAR iacute
ENCODING 237
SWIDTH 174 0
DWIDTH 2 0
BBX 2 7 0 0
BITMAP
01
82
30
62
54
47
17
ENDCHAR
STARTCHAR icircumflex
ENCODING 238
SWIDTH 174 0
DWIDTH 2 0
BBX 4 8 -1 0
BITMAP
0110
09A0
3452
0200
0620
0540
0470
0170
ENDCHAR
STARTCHAR idieresis
ENCODING 239
SWIDTH 174 0
DWIDTH 2 0
BBX 3 6 -1 0
BITMAP
5590
0210
0620
0540
0470
0170
ENDCHAR
STARTCHAR eth
ENCODING 240
SWIDTH 407 0
DWIDTH 4 0
BBX 4 7 0 -1
BITMAP
2200
4799
0777
477B
8007
5897
0010
ENDCHAR
STARTCHAR ntilde
ENCODING 241
SWIDTH 459 0
DWIDTH 5 0
BBX 5 7 0 0
BITMAP
240300
628300
000000
589600
A10910
910550
440350
ENDCHAR
STARTCHAR ograve
ENCODING 242
SWIDTH 487 0
DWIDTH 5 0
BBX 5 6 0 0
BITMAP
005000
005100
189B10
700270
800470
399910
ENDCHAR
STARTCHAR oacute
ENCODING 243
SWIDTH 487 0
DWIDTH 5 0
BBX 5 7 0 0
BITMAP
003000
046000
000000
189B10
700270
800470
399910
ENDCHAR
STARTCHAR ocircumflex
ENCODING 244
SWIDTH 487 0
DWIDTH 5 0
BBX 5 7 0 0
BITMAP
002000
02E300
071600
189B10
700270
800470
399910
ENDCHAR
STARTCHAR otilde
ENCODING 245
SWIDTH 487 0
DWIDTH 5 0
BBX 5 6 0 0
BITMAP
051210
246600
189B10
700270
800470
399910
ENDCHAR
STARTCHAR odieresis
ENCODING 246
SWIDTH 487 0
DWIDTH 5 0
BBX 5 6 0 0
BITMAP
020200
083700
189B10
700270
800470
399910
ENDCHAR
STARTCHAR divide
ENCODING 247
SWIDTH 335 0
DWIDTH 3 0
BBX 3 4 0 0
BITMAP
0200
4A70
0100
0100
ENDCHAR
STARTCHAR oslash
ENCODING 248
SWIDTH 487 0
DWIDTH 5 0
BBX 5 5 0 0
BITMAP
001500
28AD10
70A280
883470
6C9900
ENDCHAR
STARTCHAR ugrave
ENCODING 249
SWIDTH 501 0
DWIDTH 5 0
BBX 5 8 0 -1
BITMAP
041000
015000
200000
800510
800740
720B50
1A9390
000020
ENDCHAR
STARTCHAR uacute
ENCODING 250
SWIDTH 501 0
DWIDTH 5 0
BBX 5 8 0 -1
BITMAP
003000
036000
200000
800510
800740
720B50
1A9390
000020
ENDCHAR
STARTCHAR ucircumflex
ENCODING 251
SWIDTH 501 0
DWIDTH 5 0
BBX 5 9 0 -1
BITMAP
002000
01D500
062700
200000
800510
800740
720B50
1A9390
000020
ENDCHAR
STARTCHAR udieresis
ENCODING 252
SWIDTH 501 0
DWIDTH 5 0
BBX 5 8 0 -1
BITMAP
021100
094500
200000
800510
800740
720B50
1A9390
000020
ENDCHAR
STARTCHAR yacute
ENCODING 253
SWIDTH 487 0
DWIDTH 5 0
BBX 5 12 0 -5
BITMAP
003000
045000
100110
700250
800170
540590
068680
000070
000070
100080
560440
059900
ENDCHAR
STARTCHAR thorn
ENCODING 254
SWIDTH 520 0
DWIDTH 5 0
BBX 5 7 0 -2
BITMAP
700000
778820
930190
A523A0
A57620
900000
700000
ENDCHAR
STARTCHAR ydieresis
ENCODING 255
SWIDTH 487 0
DWIDTH 5 0
BBX 5 12 0 -5
BITMAP
021100
094500
100110
700250
800170
540590
068680
000070
000070
100080
560440
059900
ENDCHAR
STARTCHAR Amacron
ENCODING 256
SWIDTH 562 0
DWIDTH 6 0
BBX 6 10 0 0
BITMAP
036300
043200
037400
170540
510080
600071
854383
822375
720045
440054
ENDCHAR
STARTCHAR amacron
ENCODING 257
SWIDTH 505 0
DWIDTH 5 0
BBX 5 7 0 0
BITMAP
036300
043200
059500
000820
597B80
800080
49AA50
ENDCHAR
STARTCHAR Abreve
ENCODING 258
SWIDTH 562 0
DWIDTH 6 0
BBX 6 9 0 0
BITMAP
006600
037400
170540
510080
600071
854383
822375
720045
440054
ENDCHAR
STARTCHAR abreve
ENCODING 259
SWIDTH 505 0
DWIDTH 5 0
BBX 5 7 0 0
BITMAP
047200
000000
059500
000820
597B80
800080
49AA50
ENDCHAR
STARTCHAR Aogonek
ENCODING 260
SWIDTH 562 0
DWIDTH 6 0
BBX 6 10 0 -2
BITMAP
037400
170540
510080
600071
854383
822375
720045
440084
000450
000153
ENDCHAR
STARTCHAR aogonek
ENCODING 261
SWIDTH 505 0
DWIDTH 5 0
BBX 5 7 0 -2
BITMAP
059500
000820
597B80
800080
49AA50
002720
000120
ENDCHAR
STARTCHAR Cacute
ENCODING 262
SWIDTH 515 0
DWIDTH 5 0
BBX 5 9 0 0
BITMAP
000300
008200
003500
067700
340000
600000
700000
810000
2B9960
ENDCHAR
STARTCHAR cacute
ENCODING 263
SWIDTH 449 0
DWIDTH 5 0
BBX 5 7 0 0
BITMAP
002100
027000
000000
287500
800200
900000
398710
ENDCHAR
STARTCHAR Ccircumflex
ENCODING 264
SWIDTH 515 0
DWIDTH 5 0
BBX 5 10 0 0
BITMAP
002000
01C600
062700
003500
067700
340000
600000
700000
810000
2B9960
ENDCHAR
STARTCHAR ccircumflex
ENCODING 265
SWIDTH 449 0
DWIDTH 5 0
BBX 5 8 0 0
BITMAP
002000
03D200
072600
000000
287500
800200
900000
398710
ENDCHAR
STARTCHAR Cdotaccent
ENCODING 266
SWIDTH 515 0
DWIDTH 5 0
BBX 5 8 0 0
BITMAP
004000
006500
067700
340000
600000
700000
810000
2B9960
ENDCHAR
STARTCHAR cdotaccent
ENCODING 267
SWIDTH 449 0
DWIDTH 5 0
BBX 5 6 0 0
BITMAP
013000
003000
287500
800200
900000
398710
ENDCHAR
STARTCHAR Ccaron
ENCODING 268
SWIDTH 515 0
DWIDTH 5 0
BBX 5 8 0 0
BITMAP
017920
003600
067700
340000
600000
700000
810000
2B9960
ENDCHAR
STARTCHAR ccaron
ENCODING 269
SWIDTH 449 0
DWIDTH 5 0
BBX 5 6 0 0
BITMAP
069400
001000
287500
800200
900000
398710
ENDCHAR
STARTCHAR Dcaron
ENCODING 270
SWIDTH 741 0
DWIDTH 7 0
BBX 8 9 0 -1
BITMAP
00388000
03420000
656C9300
00080750
00080090
00090071
000901A0
00598B30
00011000
ENDCHAR
STARTCHAR dcaron
ENCODING 271
SWIDTH 582 0
DWIDTH 6 0
BBX 6 8 0 0
BITMAP
000001
000808
000558
3CA780
9208A0
9004C0
911BC0
3BB450
ENDCHAR
STARTCHAR Dcroat
ENCODING 272
SWIDTH 741 0
DWIDTH 7 0
BBX 8 8 0 -1
BITMAP
03410000
656C9300
00080750
004B3090
004A2071
000901A0
00598B30
00011000
ENDCHAR
STARTCHAR dcroat
ENCODING 273
SWIDTH 524 0
DWIDTH 5 0
BBX 6 8 0 0
BITMAP
000100
000910
007BC2
065390
775AA0
A003C0
900AC0
3BA350
ENDCHAR
STARTCHAR Emacron
ENCODING 274
SWIDTH 524 0
DWIDTH 5 0
BBX 5 8 0 0
BITMAP
036400
165400
966640
900000
A77820
800000
800000
79AB60
ENDCHAR
STARTCHAR emacron
ENCODING 275
SWIDTH 515 0
DWIDTH 5 0
BBX 5 7 0 0
BITMAP
036400
045300
286600
801800
878100
720000
089940
ENDCHAR
STARTCHAR Ebreve
ENCODING 276
SWIDTH 524 0
DWIDTH 5 0
BBX 5 8 0 0
BITMAP
036400
122200
966640
900000
A77820
800000
800000
79AB60
ENDCHAR
STARTCHAR ebreve
ENCODING 277
SWIDTH 515 0
DWIDTH 5 0
BBX 5 7 0 0
BITMAP
007600
001000
286600
801800
878100
720000
089940
ENDCHAR
STARTCHAR Edotaccent
ENCODING 278
SWIDTH 524 0
DWIDTH 5 0
BBX 5 8 0 0
BITMAP
004000
125200
966640
900000
A77820
800000
800000
79AB60
ENDCHAR
STARTCHAR edotaccent
ENCODING 279
SWIDTH 515 0
DWIDTH 5 0
BBX 5 7 0 0
BITMAP
013000
004000
286600
801800
878100
720000
089940
ENDCHAR
STARTCHAR Eogonek
ENCODING 280
SWIDTH 524 0
DWIDTH 5 0
BBX 5 9 0 -2
BITMAP
122200
966640
900000
A77820
800000
800000
79AC60
005400
001530
ENDCHAR
STARTCHAR eogonek
ENCODING 281
SWIDTH 515 0
DWIDTH 5 0
BBX 5 8 0 -2
BITMAP
001000
286600
801800
878100
720000
08A940
007300
001520
ENDCHAR
STARTCHAR Ecaron
ENCODING 282
SWIDTH 524 0
DWIDTH 5 0
BBX 5 8 0 0
BITMAP
039800
123200
966640
900000
A77820
800000
800000
79AB60
ENDCHAR
STARTCHAR ecaron
ENCODING 283
SWIDTH 515 0
DWIDTH 5 0
BBX 5 7 0 0
BITMAP
039700
002000
286600
801800
878100
720000
089940
ENDCHAR
STARTCHAR Gcircumflex
ENCODING 284
SWIDTH 571 0
DWIDTH 6 0
BBX 6 10 0 -1
BITMAP
000200
000B80
005270
000130
017761
180000
714792
700064
2986A4
000025
ENDCHAR
STARTCHAR gcircumflex
ENCODING 285
SWIDTH 366 0
DWIDTH 4 0
BBX 6 13 -2 -5
BITMAP
000110
0009A0
003462
000010
001891
007045
009067
004A98
000019
000008
320008
193027
018AA1
ENDCHAR
STARTCHAR Gbreve
ENCODING 286
SWIDTH 571 0
DWIDTH 6 0
BBX 6 8 0 -1
BITMAP
006600
000130
017761
180000
714792
700064
2986A4
000025
ENDCHAR
STARTCHAR gbreve
ENCODING 287
SWIDTH 366 0
DWIDTH 4 0
BBX 6 11 -2 -5
BITMAP
000760
000010
001891
007045
009067
004A98
000019
000008
320008
193027
018AA1
ENDCHAR
STARTCHAR Gdotaccent
ENCODING 288
SWIDTH 571 0
DWIDTH 6 0
BBX 6 8 0 -1
BITMAP
000400
000430
017761
180000
714792
700064
2986A4
000025
ENDCHAR
STARTCHAR gdotaccent
ENCODING 289
SWIDTH 366 0
DWIDTH 4 0
BBX 6 11 -2 -5
BITMAP
000400
000210
001891
007045
009067
004A98
000019
000008
320008
193027
018AA1
ENDCHAR
STARTCHAR Gcommaaccent
ENCODING 290
SWIDTH 571 0
DWIDTH 6 0
BBX 6 10 0 -4
BITMAP
000130
017761
180000
714792
700064
2986A4
000025
006200
007200
001000
ENDCHAR
STARTCHAR gcommaaccent
ENCODING 291
SWIDTH 366 0
DWIDTH 4 0
BBX 6 15 -2 -5
BITMAP
000100
000710
000620
000000
000000
000010
001891
007045
009067
004A98
000019
000008
320008
193027
018AA1
ENDCHAR
STARTCHAR Hcircumflex
ENCODING 292
SWIDTH 524 0
DWIDTH 5 0
BBX 5 10 0 0
BITMAP
002000
01C600
062700
300050
700070
800080
726990
9A3080
450080
240080
ENDCHAR
STARTCHAR hcircumflex
ENCODING 293
SWIDTH 427 0
DWIDTH 4 0
BBX 5 9 -1 0
BITMAP
000200
003D20
177260
090000
096500
085660
061080
053090
044080
ENDCHAR
STARTCHAR hbar
ENCODING 295
SWIDTH 427 0
DWIDTH 4 0
BBX 5 7 -1 0
BITMAP
170000
5C6000
297500
085660
061080
053090
044080
ENDCHAR
STARTCHAR Itilde
ENCODING 296
SWIDTH 167 0
DWIDTH 2 0
BBX 4 8 -1 0
BITMAP
3403
6382
0300
0800
0710
0540
0360
0170
ENDCHAR
STARTCHAR itilde
ENCODING 297
SWIDTH 174 0
DWIDTH 2 0
BBX 4 7 -1 0
BITMAP
2615
5063
0200
0620
0540
0470
0170
ENDCHAR
STARTCHAR imacron
ENCODING 299
SWIDTH 174 0
DWIDTH 2 0
BBX 4 6 -1 0
BITMAP
3981
0200
0620
0540
0470
0170
ENDCHAR
STARTCHAR Ibreve
ENCODING 300
SWIDTH 167 0
DWIDTH 2 0
BBX 2 8 0 0
BITMAP
67
00
30
80
71
54
36
17
ENDCHAR
STARTCHAR ibreve
ENCODING 301
SWIDTH 174 0
DWIDTH 2 0
BBX 3 6 -1 0
BITMAP
1750
0200
0620
0540
0470
0170
ENDCHAR
STARTCHAR Iogonek
ENCODING 302
SWIDTH 167 0
DWIDTH 2 0
BBX 2 8 0 -2
BITMAP
30
80
71
54
36
47
90
45
ENDCHAR
STARTCHAR iogonek
ENCODING 303
SWIDTH 174 0
DWIDTH 2 0
BBX 3 8 -1 -2
BITMAP
0500
0200
0620
0540
0470
0580
1800
0540
ENDCHAR
STARTCHAR Idotaccent
ENCODING 304
SWIDTH 167 0
DWIDTH 2 0
BBX 2 8 0 0
BITMAP
40
30
30
80
71
54
36
17
ENDCHAR
STARTCHAR dotlessi
ENCODING 305
SWIDTH 174 0
DWIDTH 2 0
BBX 2 5 0 0
BITMAP
20
62
54
47
17
ENDCHAR
STARTCHAR Jcircumflex
ENCODING 308
SWIDTH 439 0
DWIDTH 4 0
BBX 5 10 0 0
BITMAP
000200
003E30
007260
000700
000800
000800
300620
700530
170620
018900
ENDCHAR
STARTCHAR jcircumflex
ENCODING 309
SWIDTH 200 0
DWIDTH 2 0
BBX 5 13 -2 -5
BITMAP
001100
007C10
025430
000000
002400
001900
000A00
000A00
000820
150630
0A0530
029920
001500
ENDCHAR
STARTCHAR Kcommaaccent
ENCODING 310
SWIDTH 468 0
DWIDTH 5 0
BBX 5 10 0 -4
BITMAP
506200
756000
870000
880000
849100
621930
000000
008000
018000
001000
ENDCHAR
STARTCHAR kcommaaccent
ENCODING 311
SWIDTH 403 0
DWIDTH 4 0
BBX 4 10 0 -4
BITMAP
6000
8031
8260
7900
6A00
7498
0000
0440
0540
0100
ENDCHAR
STARTCHAR Lacute
ENCODING 313
SWIDTH 346 0
DWIDTH 3 0
BBX 4 8 0 0
BITMAP
0030
0550
2000
8000
9000
8000
8000
6A92
ENDCHAR
STARTCHAR lacute
ENCODING 314
SWIDTH 120 0
DWIDTH 1 0
BBX 3 8 -1 0
BITMAP
0120
1800
0800
0900
0A00
0A00
0A00
0700
ENDCHAR
STARTCHAR Lcommaaccent
ENCODING 315
SWIDTH 346 0
DWIDTH 3 0
BBX 4 10 0 -4
BITMAP
2000
8000
9000
8000
8000
6A92
0000
0810
0810
0100
ENDCHAR
STARTCHAR lcommaaccent
ENCODING 316
SWIDTH 120 0
DWIDTH 1 0
BBX 1 10 0 -4
BITMAP
80
90
A0
A0
A0
70
00
90
90
10
ENDCHAR
STARTCHAR Lcaron
ENCODING 317
SWIDTH 346 0
DWIDTH 3 0
BBX 4 8 0 0
BITMAP
0100
0440
2260
8000
9000
8000
8000
6A92
ENDCHAR
STARTCHAR lcaron
ENCODING 318
SWIDTH 222 0
DWIDTH 2 0
BBX 3 8 0 0
BITMAP
0100
0800
8710
9000
A000
A000
A000
7000
ENDCHAR
STARTCHAR Ldot
ENCODING 319
SWIDTH 346 0
DWIDTH 3 0
BBX 4 6 0 0
BITMAP
2000
8000
9000
8A30
8200
6A92
ENDCHAR
STARTCHAR ldot
ENCODING 320
SWIDTH 333 0
DWIDTH 3 0
BBX 3 6 0 0
BITMAP
8000
9000
A000
A3A0
A020
7000
ENDCHAR
STARTCHAR Lslash
ENCODING 321
SWIDTH 346 0
DWIDTH 3 0
BBX 4 6 0 0
BITMAP
0200
2700
4500
6B00
8400
1AA6
ENDCHAR
STARTCHAR lslash
ENCODING 322
SWIDTH 120 0
DWIDTH 1 0
BBX 3 6 -1 0
BITMAP
0600
0900
0A70
5C00
0900
0600
ENDCHAR
STARTCHAR Nacute
ENCODING 323
SWIDTH 609 0
DWIDTH 6 0
BBX 6 8 0 0
BITMAP
000300
008200
200000
810081
860047
8A0009
838009
904AA3
ENDCHAR
STARTCHAR nacute
ENCODING 324
SWIDTH 459 0
DWIDTH 5 0
BBX 5 7 0 0
BITMAP
003000
073000
000000
589600
A10910
910550
440350
ENDCHAR
STARTCHAR Ncommaaccent
ENCODING 325
SWIDTH 609 0
DWIDTH 6 0
BBX 6 10 0 -4
BITMAP
200000
810081
860047
8A0009
838009
904AA3
000000
004500
004500
001000
ENDCHAR
STARTCHAR ncommaaccent
ENCODING 326
SWIDTH 459 0
DWIDTH 5 0
BBX 5 8 0 -4
BITMAP
589600
A10910
910550
440350
000000
018000
018000
001000
ENDCHAR
STARTCHAR Ncaron
ENCODING 327
SWIDTH 609 0
DWIDTH 6 0
BBX 6 8 0 0
BITMAP
017920
000000
200000
810081
860047
8A0009
838009
904AA3
ENDCHAR
STARTCHAR ncaron
ENCODING 328
SWIDTH 459 0
DWIDTH 5 0
BBX 5 6 0 0
BITMAP
059500
001000
589600
A10910
910550
440350
ENDCHAR
STARTCHAR napostrophe
ENCODING 329
SWIDTH 459 0
DWIDTH 5 0
BBX 5 7 0 0
BITMAP
180000
180000
000000
589600
A10910
910550
440350
ENDCHAR
STARTCHAR Omacron
ENCODING 332
SWIDTH 609 0
DWIDTH 6 0
BBX 6 8 0 0
BITMAP
005610
014310
000000
288600
700391
700018
730009
088882
ENDCHAR
STARTCHAR omacron
ENCODING 333
SWIDTH 487 0
DWIDTH 5 0
BBX 5 6 0 0
BITMAP
036300
043200
189B10
700270
800470
399910
ENDCHAR
STARTCHAR Obreve
ENCODING 334
SWIDTH 609 0
DWIDTH 6 0
BBX 6 7 0 0
BITMAP
005700
000000
288600
700391
700018
730009
088882
ENDCHAR
STARTCHAR obreve
ENCODING 335
SWIDTH 487 0
DWIDTH 5 0
BBX 5 6 0 0
BITMAP
058000
000000
189B10
700270
800470
399910
ENDCHAR
STARTCHAR Ohungarumlaut
ENCODING 336
SWIDTH 609 0
DWIDTH 6 0
BBX 6 8 0 0
BITMAP
005400
024600
000000
288600
700391
700018
730009
088882
ENDCHAR
STARTCHAR ohungarumlaut
ENCODING 337
SWIDTH 487 0
DWIDTH 5 0
BBX 5 6 0 0
BITMAP
043200
056100
189B10
700270
800470
399910
ENDCHAR
STARTCHAR OE
ENCODING 338
SWIDTH 848 0
DWIDTH 8 0
BBX 9 5 0 0
BITMAP
2895866500
700B600000
7005956400
7405400000
089A888810
ENDCHAR
STARTCHAR oe
ENCODING 339
SWIDTH 875 0
DWIDTH 9 0
BBX 9 6 0 -1
BITMAP
0010278100
288B903500
7002A59200
8004A30000
3999685520
0000025400
ENDCHAR
STARTCHAR Racute
ENCODING 340
SWIDTH 579 0
DWIDTH 6 0
BBX 7 10 -1 -1
BITMAP
00003000
00054000
01331000
1A558900
01500730
00A9A700
00960000
00674000
00235710
00000230
ENDCHAR
STARTCHAR racute
ENCODING 341
SWIDTH 346 0
DWIDTH 3 0
BBX 4 7 0 0
BITMAP
0030
0820
1671
B232
8000
7200
2500
ENDCHAR
STARTCHAR Rcommaaccent
ENCODING 342
SWIDTH 579 0
DWIDTH 6 0
BBX 7 11 -1 -4
BITMAP
01331000
1A558900
01500730
00A9A700
00960000
00674000
00235710
00000230
00053000
00063000
00010000
ENDCHAR
STARTCHAR rcommaaccent
ENCODING 343
SWIDTH 346 0
DWIDTH 3 0
BBX 4 9 0 -4
BITMAP
1671
B232
8000
7200
2500
0000
0810
0810
0100
ENDCHAR
STARTCHAR Rcaron
ENCODING 344
SWIDTH 579 0
DWIDTH 6 0
BBX 7 9 -1 -1
BITMAP
00289100
01342000
1A558900
01500730
00A9A700
00960000
00674000
00235710
00000230
ENDCHAR
STARTCHAR rcaron
ENCODING 345
SWIDTH 346 0
DWIDTH 3 0
BBX 4 6 0 0
BITMAP
2890
1671
B232
8000
7200
2500
ENDCHAR
STARTCHAR Sacute
ENCODING 346
SWIDTH 627 0
DWIDTH 6 0
BBX 6 10 0 -1
BITMAP
000300
006400
000000
047792
081001
018500
200393
810009
178787
000100
ENDCHAR
STARTCHAR sacute
ENCODING 347
SWIDTH 514 0
DWIDTH 5 0
BBX 5 7 0 0
BITMAP
000300
008100
177100
811600
277610
2001A0
498970
ENDCHAR
STARTCHAR Scircumflex
ENCODING 348
SWIDTH 627 0
DWIDTH 6 0
BBX 6 11 0 -1
BITMAP
000200
005D10
017350
000000
047792
081001
018500
200393
810009
178787
000100
ENDCHAR
STARTCHAR scircumflex
ENCODING 349
SWIDTH 514 0
DWIDTH 5 0
BBX 5 8 0 0
BITMAP
002000
01C600
062700
177100
811600
277610
2001A0
498970
ENDCHAR
STARTCHAR Scedilla
ENCODING 350
SWIDTH 627 0
DWIDTH 6 0
BBX 6 9 0 -3
BITMAP
047792
081001
018500
200393
810009
178787
007100
003730
008740
ENDCHAR
STARTCHAR scedilla
ENCODING 351
SWIDTH 514 0
DWIDTH 5 0
BBX 5 8 0 -3
BITMAP
177100
811600
277610
2001A0
498970
071000
016700
057700
ENDCHAR
STARTCHAR Scaron
ENCODING 352
SWIDTH 627 0
DWIDTH 6 0
BBX 6 9 0 -1
BITMAP
007930
000100
047792
081001
018500
200393
810009
178787
000100
ENDCHAR
STARTCHAR scaron
ENCODING 353
SWIDTH 514 0
DWIDTH 5 0
BBX 5 6 0 0
BITMAP
039700
177100
811600
277610
2001A0
498970
ENDCHAR
STARTCHAR Tcommaaccent
ENCODING 354
SWIDTH 581 0
DWIDTH 6 0
BBX 7 11 0 -4
BITMAP
22110000
468C8950
00080000
00080000
00090000
00081000
00056000
00000000
00054000
00063000
00010000
ENDCHAR
STARTCHAR tcommaaccent
ENCODING 355
SWIDTH 328 0
DWIDTH 3 0
BBX 4 10 0 -4
BITMAP
0900
0A00
7D81
0A00
0A00
0700
0000
0900
0900
0100
ENDCHAR
STARTCHAR Tcaron
ENCODING 356
SWIDTH 581 0
DWIDTH 6 0
BBX 7 8 0 0
BITMAP
01891000
22210000
468C8950
00080000
00080000
00090000
00081000
00056000
ENDCHAR
STARTCHAR tcaron
ENCODING 357
SWIDTH 431 0
DWIDTH 4 0
BBX 5 8 0 0
BITMAP
000100
000710
090620
0A0000
7D8100
0A0000
0A0000
070000
ENDCHAR
STARTCHAR Utilde
ENCODING 360
SWIDTH 571 0
DWIDTH 6 0
BBX 6 8 0 0
BITMAP
034030
063820
310010
700090
700090
700090
5401D4
09A825
ENDCHAR
STARTCHAR utilde
ENCODING 361
SWIDTH 501 0
DWIDTH 5 0
BBX 5 8 0 -1
BITMAP
042120
065700
200000
800510
800740
720B50
1A9390
000020
ENDCHAR
STARTCHAR Umacron
ENCODING 362
SWIDTH 571 0
DWIDTH 6 0
BBX 6 8 0 0
BITMAP
015500
024300
310010
700090
700090
700090
5401D4
09A825
ENDCHAR
STARTCHAR umacron
ENCODING 363
SWIDTH 501 0
DWIDTH 5 0
BBX 5 8 0 -1
BITMAP
046200
053200
200000
800510
800740
720B50
1A9390
000020
ENDCHAR
STARTCHAR Ubreve
ENCODING 364
SWIDTH 571 0
DWIDTH 6 0
BBX 6 7 0 0
BITMAP
006600
310010
700090
700090
700090
5401D4
09A825
ENDCHAR
STARTCHAR ubreve
ENCODING 365
SWIDTH 501 0
DWIDTH 5 0
BBX 5 7 0 -1
BITMAP
048100
200000
800510
800740
720B50
1A9390
000020
ENDCHAR
STARTCHAR Uring
ENCODING 366
SWIDTH 571 0
DWIDTH 6 0
BBX 6 8 0 0
BITMAP
005400
016500
310010
700090
700090
700090
5401D4
09A825
ENDCHAR
STARTCHAR uring
ENCODING 367
SWIDTH 501 0
DWIDTH 5 0
BBX 5 7 0 -1
BITMAP
026100
246200
800510
800740
720B50
1A9390
000020
ENDCHAR
STARTCHAR Uhungarumlaut
ENCODING 368
SWIDTH 571 0
DWIDTH 6 0
BBX 6 8 0 0
BITMAP
015400
034400
310010
700090
700090
700090
5401D4
09A825
ENDCHAR
STARTCHAR uhungarumlaut
ENCODING 369
SWIDTH 501 0
DWIDTH 5 0
BBX 5 8 0 -1
BITMAP
015400
034400
200000
800510
800740
720B50
1A9390
000020
ENDCHAR
STARTCHAR Uogonek
ENCODING 370
SWIDTH 571 0
DWIDTH 6 0
BBX 6 7 0 -2
BITMAP
620060
7000A0
700080
530094
1A4799
026291
000055
ENDCHAR
STARTCHAR uogonek
ENCODING 371
SWIDTH 501 0
DWIDTH 5 0
BBX 6 7 0 -2
BITMAP
500100
800730
800740
562B70
0683A0
000820
000141
ENDCHAR
STARTCHAR Wcircumflex
ENCODING 372
SWIDTH 703 0
DWIDTH 7 0
BBX 7 10 0 0
BITMAP
00020000
001D5000
00627000
00000000
00000000
60000520
90000380
90360090
816B0090
2A72AA30
ENDCHAR
STARTCHAR wcircumflex
ENCODING 373
SWIDTH 656 0
DWIDTH 7 0
BBX 7 8 0 0
BITMAP
00020000
003E3000
00726000
10000000
80010400
80090620
802C0640
29B5AA10
ENDCHAR
STARTCHAR Ycircumflex
ENCODING 374
SWIDTH 403 0
DWIDTH 4 0
BBX 4 11 0 -1
BITMAP
0110
07C1
2644
2000
8107
2A49
01A4
0080
0080
0080
0010
ENDCHAR
STARTCHAR ycircumflex
ENCODING 375
SWIDTH 487 0
DWIDTH 5 0
BBX 5 13 0 -5
BITMAP
002000
02D400
071700
100110
700250
800170
540590
068680
000070
000070
100080
560440
059900
ENDCHAR
STARTCHAR Ydieresis
ENCODING 376
SWIDTH 403 0
DWIDTH 4 0
BBX 4 9 0 -1
BITMAP
0210
4763
8107
2A49
01A4
0080
0080
0080
0010
ENDCHAR
STARTCHAR Zacute
ENCODING 377
SWIDTH 571 0
DWIDTH 6 0
BBX 6 9 0 0
BITMAP
000300
008200
131000
656700
000700
014B50
06A830
018000
03BAA4
ENDCHAR
STARTCHAR zacute
ENCODING 378
SWIDTH 459 0
DWIDTH 5 0
BBX 5 8 0 0
BITMAP
003000
064000
021000
768300
004400
49B600
0A1000
1DA920
ENDCHAR
STARTCHAR Zdotaccent
ENCODING 379
SWIDTH 571 0
DWIDTH 6 0
BBX 6 8 0 0
BITMAP
004000
134000
656700
000700
014B50
06A830
018000
03BAA4
ENDCHAR
STARTCHAR zdotaccent
ENCODING 380
SWIDTH 459 0
DWIDTH 5 0
BBX 5 7 0 0
BITMAP
004000
024000
768300
004400
49B600
0A1000
1DA920
ENDCHAR
STARTCHAR Zcaron
ENCODING 381
SWIDTH 571 0
DWIDTH 6 0
BBX 6 8 0 0
BITMAP
049600
132000
656700
000700
014B50
06A830
018000
03BAA4
ENDCHAR
STARTCHAR zcaron
ENCODING 382
SWIDTH 459 0
DWIDTH 5 0
BBX 5 7 0 0
BITMAP
189100
022000
768300
004400
49B600
0A1000
1DA920
ENDCHAR
STARTCHAR florin
ENCODING 402
SWIDTH 376 0
DWIDTH 4 0
BBX 6 10 -1 -3
BITMAP
005992
009013
019000
02A210
06B520
009000
009000
109000
849000
054000
ENDCHAR
STARTCHAR AEacute
ENCODING 508
SWIDTH 960 0
DWIDTH 10 0
BBX 10 9 0 0
BITMAP
0000030000
0374450000
1705433220
51009A6551
6000780000
85438B7860
8223760000
7200450000
44005AABA2
ENDCHAR
STARTCHAR aeacute
ENCODING 509
SWIDTH 881 0
DWIDTH 9 0
BBX 9 9 0 -1
BITMAP
0000120000
0000910000
0000000000
0595288300
0008901700
597BA79200
8000910000
49AA897630
0000003200
ENDCHAR
STARTCHAR Oslashacute
ENCODING 510
SWIDTH 609 0
DWIDTH 6 0
BBX 6 8 0 -1
BITMAP
004400
004000
288A10
700891
702618
737109
09C882
043000
ENDCHAR
STARTCHAR oslashacute
ENCODING 511
SWIDTH 487 0
DWIDTH 5 0
BBX 5 6 0 0
BITMAP
008100
023110
287D30
704870
81A470
3DA900
ENDCHAR
STARTCHAR Scommaaccent
ENCODING 536
SWIDTH 627 0
DWIDTH 6 0
BBX 6 10 0 -4
BITMAP
047792
081001
018500
200393
810009
178787
000100
005300
006300
001000
ENDCHAR
STARTCHAR scommaaccent
ENCODING 537
SWIDTH 514 0
DWIDTH 5 0
BBX 5 9 0 -4
BITMAP
177100
811600
277610
2001A0
498970
000000
009000
009000
001000
ENDCHAR
STARTCHAR circumflex
ENCODING 710
SWIDTH 375 0
DWIDTH 4 0
BBX 4 3 0 5
BITMAP
0110
09A0
3462
ENDCHAR
STARTCHAR caron
ENCODING 711
SWIDTH 375 0
DWIDTH 4 0
BBX 4 1 0 5
BITMAP
2891
ENDCHAR
STARTCHAR breve
ENCODING 728
SWIDTH 224 0
DWIDTH 2 0
BBX 2 1 0 4
BITMAP
58
ENDCHAR
STARTCHAR dotaccent
ENCODING 729
SWIDTH 152 0
DWIDTH 2 0
BBX 1 2 0 4
BITMAP
40
20
ENDCHAR
STARTCHAR ring
ENCODING 730
SWIDTH 333 0
DWIDTH 3 0
BBX 2 2 1 4
BITMAP
54
65
ENDCHAR
STARTCHAR ogonek
ENCODING 731
SWIDTH 254 0
DWIDTH 3 0
BBX 3 3 0 -2
BITMAP
1300
8100
3610
ENDCHAR
STARTCHAR tilde
ENCODING 732
SWIDTH 402 0
DWIDTH 4 0
BBX 4 2 0 4
BITMAP
2403
6382
ENDCHAR
STARTCHAR hungarumlaut
ENCODING 733
SWIDTH 264 0
DWIDTH 3 0
BBX 3 2 0 4
BITMAP
3430
5510
ENDCHAR
STARTCHAR Wgrave
ENCODING 7808
SWIDTH 703 0
DWIDTH 7 0
BBX 7 8 0 0
BITMAP
00050000
00042000
00000000
60000520
90000380
90360090
816B0090
2A72AA30
ENDCHAR
STARTCHAR wgrave
ENCODING 7809
SWIDTH 656 0
DWIDTH 7 0
BBX 7 6 0 0
BITMAP
00140000
10060000
80010400
80090620
802C0640
29B5AA10
ENDCHAR
STARTCHAR Wacute
ENCODING 7810
SWIDTH 703 0
DWIDTH 7 0
BBX 7 8 0 0
BITMAP
00030000
00460000
00000000
60000520
90000380
90360090
816B0090
2A72AA30
ENDCHAR
STARTCHAR wacute
ENCODING 7811
SWIDTH 656 0
DWIDTH 7 0
BBX 7 7 0 0
BITMAP
00030000
00460000
10000000
80010400
80090620
802C0640
29B5AA10
ENDCHAR
STARTCHAR Wdieresis
ENCODING 7812
SWIDTH 703 0
DWIDTH 7 0
BBX 7 8 0 0
BITMAP
00202000
00737000
00000000
60000520
90000380
90360090
816B0090
2A72AA30
ENDCHAR
STARTCHAR wdieresis
ENCODING 7813
SWIDTH 656 0
DWIDTH 7 0
BBX 7 6 0 0
BITMAP
00211000
10945000
80010400
80090620
802C0640
29B5AA10
ENDCHAR
STARTCHAR Ygrave
ENCODING 7922
SWIDTH 403 0
DWIDTH 4 0
BBX 4 10 0 -1
BITMAP
0410
0150
2000
8107
2A49
01A4
0080
0080
0080
0010
ENDCHAR
STARTCHAR ygrave
ENCODING 7923
SWIDTH 487 0
DWIDTH 5 0
BBX 5 11 0 -5
BITMAP
005000
105210
700250
800170
540590
068680
000070
000070
100080
560440
059900
ENDCHAR
STARTCHAR endash
ENCODING 8211
SWIDTH 287 0
DWIDTH 3 0
BBX 3 2 0 2
BITMAP
1210
6650
ENDCHAR
STARTCHAR emdash
ENCODING 8212
SWIDTH 512 0
DWIDTH 5 0
BBX 5 2 0 2
BITMAP
012210
587650
ENDCHAR
STARTCHAR quoteleft
ENCODING 8216
SWIDTH 102 0
DWIDTH 1 0
BBX 1 3 0 5
BITMAP
10
80
80
ENDCHAR
STARTCHAR quoteright
ENCODING 8217
SWIDTH 102 0
DWIDTH 1 0
BBX 1 3 0 5
BITMAP
10
80
80
ENDCHAR
STARTCHAR quotesinglbase
ENCODING 8218
SWIDTH 102 0
DWIDTH 1 0
BBX 1 3 0 -1
BITMAP
70
90
20
ENDCHAR
STARTCHAR quotedblleft
ENCODING 8220
SWIDTH 234 0
DWIDTH 2 0
BBX 3 3 0 5
BITMAP
4600
9800
7810
ENDCHAR
STARTCHAR quotedblright
ENCODING 8221
SWIDTH 234 0
DWIDTH 2 0
BBX 3 3 0 5
BITMAP
4600
9800
7810
ENDCHAR
STARTCHAR quotedblbase
ENCODING 8222
SWIDTH 341 0
DWIDTH 3 0
BBX 3 4 0 -2
BITMAP
2150
3690
0890
0010
ENDCHAR
STARTCHAR dagger
ENCODING 8224
SWIDTH 375 0
DWIDTH 4 0
BBX 4 7 0 0
BITMAP
0200
0700
1951
5872
0350
0350
0250
ENDCHAR
STARTCHAR daggerdbl
ENCODING 8225
SWIDTH 375 0
DWIDTH 4 0
BBX 6 8 -1 0
BITMAP
003000
009000
006100
39B981
268950
124620
002500
002500
ENDCHAR
STARTCHAR bullet
ENCODING 8226
SWIDTH 341 0
DWIDTH 3 0
BBX 2 3 1 1
BITMAP
43
DB
32
ENDCHAR
STARTCHAR ellipsis
ENCODING 8230
SWIDTH 612 0
DWIDTH 6 0
BBX 6 2 0 0
BITMAP
574848
69695A
ENDCHAR
STARTCHAR guilsinglleft
ENCODING 8249
SWIDTH 487 0
DWIDTH 5 0
BBX 5 4 0 0
BITMAP
001830
058100
870000
489910
ENDCHAR
STARTCHAR guilsinglright
ENCODING 8250
SWIDTH 403 0
DWIDTH 4 0
BBX 4 5 0 0
BITMAP
5100
1896
002B
0581
6500
ENDCHAR
STARTCHAR fraction
ENCODING 8260
SWIDTH 309 0
DWIDTH 3 0
BBX 3 8 0 0
BITMAP
0030
0070
0170
0540
0900
1800
7200
8000
ENDCHAR
STARTCHAR Euro
ENCODING 8364
SWIDTH 741 0
DWIDTH 7 0
BBX 7 7 0 0
BITMAP
00006840
012A7100
88C65300
01A57200
69720000
01600000
00789A80
ENDCHAR
STARTCHAR trademark
ENCODING 8482
SWIDTH 1116 0
DWIDTH 11 0
BBX 11 7 0 0
BITMAP
211000000000
478C89D10370
000800894C60
000800826470
000900900080
0008109000A0
0005606000A0
ENDCHAR
STARTCHAR minus
ENCODING 8722
SWIDTH 287 0
DWIDTH 3 0
BBX 3 2 0 2
BITMAP
1210
6650
ENDCHAR
STARTCHAR commaaccent
ENCODING 63171
SWIDTH 375 0
DWIDTH 4 0
BBX 1 3 1 -4
BITMAP
90
90
10
ENDCHAR
STARTCHAR fi
ENCODING 64257
SWIDTH 551 0
DWIDTH 6 0
BBX 5 7 0 0
BITMAP
059920
071530
170100
2A2800
6C7B00
055820
00A640
ENDCHAR
STARTCHAR fl
ENCODING 64258
SWIDTH 723 0
DWIDTH 7 0
BBX 5 7 0 0
BITMAP
059920
070530
170900
2A3A00
6C7B00
055A00
00A800
ENDCHAR
STARTCHAR .notdef
ENCODING -1
SWIDTH 375 0
DWIDTH 4 0
BBX 1 1 0 0
BITMAP
00
ENDCHAR
STARTCHAR .null
ENCODING -1
SWIDTH 0 0
DWIDTH 0 0
BBX 1 1 0 0
BITMAP
00
ENDCHAR
STARTCHAR nonmarkingreturn
ENCODING -1
SWIDTH 375 0
DWIDTH 4 0
BBX 1 1 0 0
BITMAP
00
ENDCHAR
ENDFONT
